<svg height="84" viewBox="0 0 427 84" width="427" xmlns="http://www.w3.org/2000/svg"><g fill="#fff" fill-rule="evenodd"><g fill-rule="nonzero" transform="translate(101.66 17.53)"><path d="m12.65 41.69c7.645 0 13.035-5.39 13.035-12.98v-25.465h-8.14v24.805c0 3.685-2.42 6.27-5.72 6.27-2.53 0-5.225-1.705-6.435-4.18l-5.39 5.28c2.53 3.685 7.81 6.27 12.65 6.27z"/><path d="m43.6797876 11.935c-3.96 0-7.865 1.1-11.88 3.135l2.695 5.335c2.255-1.155 4.73-2.035 7.37-2.035 4.675 0 6.545 2.64 6.545 5.665v.55c-2.42-.935-4.95-1.43-7.26-1.43-6.6 0-11.825 3.85-11.825 9.46 0 5.445 4.675 9.075 10.725 9.075 3.08 0 6.325-1.21 8.36-3.52v2.86h7.755v-16.995c0-7.425-5.06-12.1-12.485-12.1zm-1.815 24.2c-2.75 0-4.785-1.43-4.785-3.74s2.31-4.015 5.225-4.015c2.2 0 4.29.385 6.105 1.045v2.64c-.55 2.64-3.465 4.07-6.545 4.07z"/><path d="m69.0995752 17.875v-5.28h-8.03v28.435h8.03v-13.585c0-5.335 3.795-8.745 9.735-8.745v-6.765c-4.345 0-7.865 2.255-9.735 5.94z"/><path d="m85.6093628 8.69c2.365 0 4.29-1.98 4.29-4.4 0-2.255-1.925-4.29-4.29-4.29-2.475 0-4.4 2.035-4.4 4.29 0 2.42 1.925 4.4 4.4 4.4zm-4.07 32.34h8.03v-28.435h-8.03z"/><path d="m116.263938 33.715v-30.47h-8.14v37.785h26.95v-7.315z"/><path d="m151.638726 34.595c-3.355 0-5.83-2.09-6.765-5.17h20.515c0-10.725-5.225-17.49-14.135-17.49-8.305 0-14.63 6.215-14.63 14.795 0 8.745 6.6 14.96 15.07 14.96 4.18 0 9.075-1.76 11.605-4.4l-5.115-5.225c-1.54 1.485-4.29 2.53-6.545 2.53zm-.055-15.565c3.245 0 5.335 1.815 6.105 4.62h-12.705c1.045-2.86 3.575-4.62 6.6-4.62z"/><path d="m185.418513 11.935c-3.63 0-6.765 1.65-8.525 4.125v-13.475h-8.03v38.445h8.03v-16.83c0-3.08 2.585-5.5 5.94-5.5 3.19 0 5.39 2.42 5.39 5.94v16.39h7.755v-18.095c0-6.435-4.4-11-10.56-11z"/><path d="m215.843301 33.99c-.55.55-1.65.935-2.75.935-1.485 0-2.695-1.32-2.695-3.19v-12.65h6.16v-6.49h-6.16v-7.81h-7.7v7.81h-3.905v6.49h3.905v13.915c0 5.115 3.52 8.69 8.525 8.69 2.31 0 4.895-.99 6.545-2.475z"/><path d="m224.928088 8.69c2.365 0 4.29-1.98 4.29-4.4 0-2.255-1.925-4.29-4.29-4.29-2.475 0-4.4 2.035-4.4 4.29 0 2.42 1.925 4.4 4.4 4.4zm-4.07 32.34h8.03v-28.435h-8.03z"/><path d="m250.457876 11.935c-3.685 0-6.875 1.65-8.58 4.235v-3.575h-8.03v28.435h8.03v-16.995l.055.165c0-3.08 2.585-5.5 5.94-5.5 3.19 0 5.39 2.42 5.39 5.94v16.39h7.755v-18.095c0-6.435-4.4-11-10.56-11z"/><path d="m279.342664 34.595c-3.355 0-5.83-2.09-6.765-5.17h20.515c0-10.725-5.225-17.49-14.135-17.49-8.305 0-14.63 6.215-14.63 14.795 0 8.745 6.6 14.96 15.07 14.96 4.18 0 9.075-1.76 11.605-4.4l-5.115-5.225c-1.54 1.485-4.29 2.53-6.545 2.53zm-.055-15.565c3.245 0 5.335 1.815 6.105 4.62h-12.705c1.045-2.86 3.575-4.62 6.6-4.62z"/><path d="m313.122451 11.935c-3.685 0-6.875 1.65-8.58 4.235v-3.575h-8.03v28.435h8.03v-16.995l.055.165c0-3.08 2.585-5.5 5.94-5.5 3.19 0 5.39 2.42 5.39 5.94v16.39h7.755v-18.095c0-6.435-4.4-11-10.56-11z"/></g><path d="m42 0c1.1472321 0 2.283721.04599695 3.4077232.13624727l-.0006049 65.86375273h11.2l.0004322-63.39006959c15.9945522 5.93373996 27.3924495 21.33084399 27.3924495 39.39006959 0 23.1959595-18.8040405 42-42 42-.7946138 0-1.5840736-.0220668-2.3678-.0656209l.0006817-57.2143791h-11.2l-.0009997 55.0401088c-16.5378982-5.6420012-28.431882-21.3120606-28.431882-39.7601088 0-23.1959595 18.8040405-42 42-42zm-7.9671183 9.6c-3.68 0-6.64 3.04-6.64 6.64 0 3.68 2.96 6.64 6.64 6.64s6.64-2.96 6.64-6.64c0-3.6-2.96-6.64-6.64-6.64z"/></g></svg>