<svg fill="none" height="24" viewBox="0 0 24 24" width="24" xmlns="http://www.w3.org/2000/svg"><path d="m8 7v-.75c-.19891 0-.38968.07902-.53033.21967zm12 0h.75c0-.41421-.3358-.75-.75-.75zm0 10v.75c.4142 0 .75-.3358.75-.75zm-12 0-.53033.5303c.14065.1407.33142.2197.53033.2197zm-5-5-.53033-.5303c-.29289.2929-.29289.7677 0 1.0606zm5-4.25h12v-1.5h-12zm11.25-.75v10h1.5v-10zm.75 9.25h-12v1.5h12zm-11.46967.2197-5-5-1.06066 1.0606 5 5zm-5-3.9394 5-4.99997-1.06066-1.06066-5 5.00003zm6.71967-.5303c0 .4142-.33579.75-.75.75v1.5c1.2426 0 2.25-1.0074 2.25-2.25zm-.75.75c-.41421 0-.75-.3358-.75-.75h-1.5c0 1.2426 1.00736 2.25 2.25 2.25zm-.75-.75c0-.4142.33579-.75.75-.75v-1.5c-1.24264 0-2.25 1.0074-2.25 2.25zm.75-.75c.41421 0 .75.3358.75.75h1.5c0-1.2426-1.0074-2.25-2.25-2.25z" fill="#fff"/></svg>