<svg height="700pt" preserveAspectRatio="xMidYMid meet" viewBox="0 0 700 700" width="700pt" xmlns="http://www.w3.org/2000/svg"><path d="m3278 6995c-2-1-42-5-89-9s-95-8-105-10-41-7-69-10c-505-66-1043-273-1480-570-103-70-87-58-230-171-343-274-647-634-867-1030-49-87-148-289-148-301 0-2-9-23-20-47-57-123-157-435-186-582-2-11-10-54-19-95-29-147-36-199-52-370-15-159-7-607 12-708 1-9 6-42 9-72 21-178 81-435 149-635 109-319 224-552 413-835 74-111 232-318 288-376 208-216 297-300 446-419 93-74 371-265 386-265 4 0 15-6 23-14 44-40 493-247 608-281l23-6v2290c0 2175 1 2291 18 2292 116 6 905 2 910-5 3-5 5-1069 4-2365 0-1296 1-2366 4-2378l4-22 243 4c133 2 253 6 267 8 14 3 56 8 93 12 37 3 78 8 90 11 12 2 38 6 57 9s46 7 60 10c14 2 39 7 55 10 191 36 411 101 622 184 130 52 418 192 473 231 15 11 33 20 39 20s11 5 11 10c0 6 5 10 10 10 15 0 220 141 330 227 152 118 324 280 450 422 36 41 70 79 76 85s48 61 94 121c150 197 277 405 383 628 26 53 47 99 47 102 0 2 11 28 24 57 57 127 151 421 182 573 61 295 78 462 79 750 0 180-7 337-20 435-8 65-15 117-20 140-3 14-7 39-10 55-107 626-416 1256-851 1734-74 81-254 257-314 306-25 21-64 54-88 74-140 117-396 283-592 384-129 66-370 170-378 162-3-3-5-1191-5-2640v-2635h-467-466l1 2741c0 1799-3 2743-10 2747-10 6-490 13-497 7zm-328-810c244-48 429-268 436-520 4-104-9-162-56-260-40-81-104-160-173-209-41-30-133-74-169-82-83-17-112-21-164-19-68 3-124 13-169 29-146 54-259 157-320 291-124 273-9 594 260 725 121 59 220 72 355 45z" transform="matrix(.1 0 0 -.1 0 700)"/></svg>