<svg width="24" height="24" viewBox="0 0 24 24" fill="none" xmlns="http://www.w3.org/2000/svg">
<path d="M2.25 10C2.25 10.4142 2.58579 10.75 3 10.75C3.41421 10.75 3.75 10.4142 3.75 10H2.25ZM19.4697 20.5303C19.7626 20.8232 20.2374 20.8232 20.5303 20.5303C20.8232 20.2374 20.8232 19.7626 20.5303 19.4697L19.4697 20.5303ZM10.75 7C10.75 6.58579 10.4142 6.25 10 6.25C9.58579 6.25 9.25 6.58579 9.25 7H10.75ZM9.25 13C9.25 13.4142 9.58579 13.75 10 13.75C10.4142 13.75 10.75 13.4142 10.75 13H9.25ZM7 9.25C6.58579 9.25 6.25 9.58579 6.25 10C6.25 10.4142 6.58579 10.75 7 10.75V9.25ZM13 10.75C13.4142 10.75 13.75 10.4142 13.75 10C13.75 9.58579 13.4142 9.25 13 9.25L13 10.75ZM17.5303 16.4697C17.2374 16.1768 16.7626 16.1768 16.4697 16.4697C16.1768 16.7626 16.1768 17.2374 16.4697 17.5303L17.5303 16.4697ZM8 10.75C8.41421 10.75 8.75 10.4142 8.75 10C8.75 9.58579 8.41421 9.25 8 9.25V10.75ZM10 9.25C9.58579 9.25 9.25 9.58579 9.25 10C9.25 10.4142 9.58579 10.75 10 10.75L10 9.25ZM5.53568 14.3741C5.24577 14.0782 4.77092 14.0734 4.47508 14.3633C4.17923 14.6532 4.17441 15.1281 4.46432 15.4239L5.53568 14.3741ZM16.25 10C16.25 13.4518 13.4518 16.25 10 16.25V17.75C14.2802 17.75 17.75 14.2802 17.75 10H16.25ZM3.75 10C3.75 6.54822 6.54822 3.75 10 3.75V2.25C5.71979 2.25 2.25 5.71979 2.25 10H3.75ZM10 3.75C13.4518 3.75 16.25 6.54822 16.25 10H17.75C17.75 5.71979 14.2802 2.25 10 2.25V3.75ZM9.25 7V13H10.75V7H9.25ZM20.5303 19.4697L17.5303 16.4697L16.4697 17.5303L19.4697 20.5303L20.5303 19.4697ZM7 10.75H8V9.25H7V10.75ZM10 10.75L13 10.75L13 9.25L10 9.25L10 10.75ZM10 16.25C8.25101 16.25 6.67094 15.5326 5.53568 14.3741L4.46432 15.4239C5.87009 16.8585 7.83161 17.75 10 17.75V16.25Z" fill="#001A72"/>
</svg>
