<svg width="24" height="24" viewBox="0 0 24 24" fill="none" xmlns="http://www.w3.org/2000/svg">
<path d="M12 17L11.25 17C11.25 17.3033 11.4327 17.5768 11.713 17.6929C11.9932 17.809 12.3158 17.7448 12.5303 17.5303L12 17ZM12.75 7C12.75 6.58579 12.4142 6.25 12 6.25C11.5858 6.25 11.25 6.58579 11.25 7L12.75 7ZM8.53033 12.4697C8.23744 12.1768 7.76256 12.1768 7.46967 12.4697C7.17678 12.7626 7.17678 13.2374 7.46967 13.5303L8.53033 12.4697ZM16.5303 13.5303C16.8232 13.2374 16.8232 12.7626 16.5303 12.4697C16.2374 12.1768 15.7626 12.1768 15.4697 12.4697L16.5303 13.5303ZM6.58281 3.89229C6.23859 4.1227 6.14633 4.58853 6.37674 4.93274C6.60715 5.27696 7.07298 5.36922 7.41719 5.13881L6.58281 3.89229ZM4.66624 8.21721C4.85646 7.84925 4.71237 7.39677 4.34441 7.20655C3.97646 7.01634 3.52397 7.16043 3.33376 7.52839L4.66624 8.21721ZM9.46967 15.5303C9.76256 15.8232 10.2374 15.8232 10.5303 15.5303C10.8232 15.2374 10.8232 14.7626 10.5303 14.4697L9.46967 15.5303ZM12.75 17L12.75 7L11.25 7L11.25 17L12.75 17ZM12.5303 17.5303L16.5303 13.5303L15.4697 12.4697L11.4697 16.4697L12.5303 17.5303ZM20.25 12C20.25 16.5563 16.5563 20.25 12 20.25V21.75C17.3848 21.75 21.75 17.3848 21.75 12H20.25ZM12 20.25C7.44365 20.25 3.75 16.5563 3.75 12H2.25C2.25 17.3848 6.61522 21.75 12 21.75V20.25ZM12 3.75C16.5563 3.75 20.25 7.44365 20.25 12H21.75C21.75 6.61522 17.3848 2.25 12 2.25V3.75ZM7.41719 5.13881C8.7277 4.26158 10.303 3.75 12 3.75V2.25C9.99674 2.25 8.1325 2.85496 6.58281 3.89229L7.41719 5.13881ZM3.75 12C3.75 10.635 4.08091 9.34949 4.66624 8.21721L3.33376 7.52839C2.64095 8.86858 2.25 10.3897 2.25 12H3.75ZM7.46967 13.5303L9.46967 15.5303L10.5303 14.4697L8.53033 12.4697L7.46967 13.5303Z" fill="#001A72"/>
</svg>
