<svg width="24" height="24" viewBox="0 0 24 24" fill="none" xmlns="http://www.w3.org/2000/svg">
<path d="M14.2977 14.25C13.8835 14.25 13.5477 14.5858 13.5477 15C13.5477 15.4142 13.8835 15.75 14.2977 15.75V14.25ZM17.25 18.7023C17.25 19.1165 17.5858 19.4523 18 19.4523C18.4142 19.4523 18.75 19.1165 18.75 18.7023H17.25ZM5.25 18.7023C5.25 19.1165 5.58579 19.4523 6 19.4523C6.41421 19.4523 6.75 19.1165 6.75 18.7023H5.25ZM3.80039 11.0824C3.8459 10.6707 3.54904 10.3001 3.13734 10.2545C2.72563 10.209 2.35498 10.5059 2.30947 10.9176L3.80039 11.0824ZM5.49981 4.73283C5.19117 5.00907 5.1649 5.48322 5.44115 5.79187C5.71739 6.10051 6.19154 6.12678 6.50019 5.85053L5.49981 4.73283ZM11 15.75C11.4142 15.75 11.75 15.4142 11.75 15C11.75 14.5858 11.4142 14.25 11 14.25V15.75ZM14.2977 15.75C15.9282 15.75 17.25 17.0718 17.25 18.7023H18.75C18.75 16.2433 16.7567 14.25 14.2977 14.25V15.75ZM9.70227 14.25C7.24335 14.25 5.25 16.2433 5.25 18.7023H6.75C6.75 17.0718 8.07178 15.75 9.70227 15.75V14.25ZM14.25 9C14.25 10.2426 13.2426 11.25 12 11.25V12.75C14.0711 12.75 15.75 11.0711 15.75 9H14.25ZM12 11.25C10.7574 11.25 9.75 10.2426 9.75 9H8.25C8.25 11.0711 9.92893 12.75 12 12.75V11.25ZM9.75 9C9.75 7.75736 10.7574 6.75 12 6.75V5.25C9.92893 5.25 8.25 6.92893 8.25 9H9.75ZM12 6.75C13.2426 6.75 14.25 7.75736 14.25 9H15.75C15.75 6.92893 14.0711 5.25 12 5.25V6.75ZM20.25 12C20.25 16.5563 16.5563 20.25 12 20.25V21.75C17.3848 21.75 21.75 17.3848 21.75 12H20.25ZM12 20.25C7.44365 20.25 3.75 16.5563 3.75 12H2.25C2.25 17.3848 6.61522 21.75 12 21.75V20.25ZM12 3.75C16.5563 3.75 20.25 7.44365 20.25 12H21.75C21.75 6.61522 17.3848 2.25 12 2.25V3.75ZM3.75 12C3.75 11.6896 3.76711 11.3834 3.80039 11.0824L2.30947 10.9176C2.27016 11.2732 2.25 11.6344 2.25 12H3.75ZM6.50019 5.85053C7.96026 4.54373 9.88655 3.75 12 3.75V2.25C9.50333 2.25 7.22428 3.1894 5.49981 4.73283L6.50019 5.85053ZM9.70227 15.75H11V14.25H9.70227V15.75Z" fill="#001A72"/>
</svg>
