<svg width="24" height="24" viewBox="0 0 24 24" fill="none" xmlns="http://www.w3.org/2000/svg">
<path d="M12.75 7C12.75 6.58579 12.4142 6.25 12 6.25C11.5858 6.25 11.25 6.58579 11.25 7H12.75ZM11.25 14C11.25 14.4142 11.5858 14.75 12 14.75C12.4142 14.75 12.75 14.4142 12.75 14H11.25ZM12.75 16.99C12.75 16.5758 12.4142 16.24 12 16.24C11.5858 16.24 11.25 16.5758 11.25 16.99H12.75ZM11.25 17C11.25 17.4142 11.5858 17.75 12 17.75C12.4142 17.75 12.75 17.4142 12.75 17H11.25ZM20.1996 12.9176C20.1541 13.3293 20.451 13.6999 20.8627 13.7455C21.2744 13.791 21.645 13.4941 21.6905 13.0824L20.1996 12.9176ZM19.2672 18.5002C19.5434 18.1915 19.5172 17.7174 19.2085 17.4411C18.8999 17.1649 18.4257 17.1912 18.1495 17.4998L19.2672 18.5002ZM11.25 7V14H12.75V7H11.25ZM11.25 16.99V17H12.75V16.99H11.25ZM12 20.25C7.44365 20.25 3.75 16.5563 3.75 12H2.25C2.25 17.3848 6.61522 21.75 12 21.75V20.25ZM3.75 12C3.75 7.44365 7.44365 3.75 12 3.75V2.25C6.61522 2.25 2.25 6.61522 2.25 12H3.75ZM12 3.75C16.5563 3.75 20.25 7.44365 20.25 12H21.75C21.75 6.61522 17.3848 2.25 12 2.25V3.75ZM20.25 12C20.25 12.3104 20.2329 12.6166 20.1996 12.9176L21.6905 13.0824C21.7298 12.7268 21.75 12.3656 21.75 12H20.25ZM18.1495 17.4998C16.6378 19.1888 14.4433 20.25 12 20.25V21.75C14.8877 21.75 17.483 20.4937 19.2672 18.5002L18.1495 17.4998Z" fill="#001A72"/>
</svg>
